 http://desibbrg.org/images/66952052392581364616.gif 
http://desibbrg.org/images/09443878297825467649.jpg 
http://desibbrg.org/images/44003041570491362301.jpg 
http://desibbrg.org/images/57893117929449274462.jpg 
http://desibbrg.org/images/91199131883723952165.jpg 
http://desibbrg.org/images/02669220423306430075.jpg

Media Info - 
Video
ID : 1
Format : AVC
Format/Info : Advanced Video Codec
Format profile : High@L2.1
Format settings, CABAC : Yes
Format settings, ReFrames : 4 frames
Codec ID : V_MPEG4/ISO/AVC
Duration : 2h 7mn
Bit rate : 690 Kbps
Width : 608 pixels
Height : 272 pixels
Display aspect ratio : 2.25:1
Frame rate : 25.000 fps
Color space : YUV
Chroma subsampling : 4:2:0
Bit depth : 8 bits
Scan type : Progressive
Bits/(Pixel*Frame) : 0.167
Stream size : 616 MiB (88%)
Title : hell
Writing library : x264 core 129 r2245 bc13772
Default : Yes
Forced : No

Audio
ID : 2
Format : MPEG Audio
Format version : Version 1
Format profile : Layer 3
Mode : Joint stereo
Mode extension : MS Stereo
Codec ID : A_MPEG/L3
Codec ID/Hint : MP3
Duration : 2h 7mn
Bit rate mode : Constant
Bit rate : 80.0 Kbps
Channel(s) : 2 channels
Sampling rate : 32.0 KHz
Compression mode : Lossy
Stream size : 72.9 MiB (10%)
Title : ictv
Writing library : LAME3.99r
Encoding settings : -m j -V 4 -q 2 -lowpass 13.5 -b 80
Default : Yes
Forced : No

Ripper : Hell

Seeding 24x7... Extreme Seeding...


Enjoy!
